<svg width="300" height="137" viewBox="0 0 300 137" fill="none" xmlns="http://www.w3.org/2000/svg">
<path d="M43.33 56.6533C43.33 61.8667 39.1174 66.16 34.002 66.16C28.8867 66.16 24.674 61.8667 24.674 56.6533C24.674 51.44 28.8867 47.1467 34.002 47.1467C39.1174 47.1467 43.33 51.44 43.33 56.6533V56.6533ZM34.002 69.84C28.8867 69.84 24.674 74.1333 24.674 79.3467C24.674 84.56 28.8867 88.8533 34.002 88.8533C39.1174 88.8533 43.33 84.56 43.33 79.3467C43.33 74.1333 39.1174 69.84 34.002 69.84V69.84ZM90.2708 68C90.2708 93.4533 70.1103 114 45.1354 114C20.1605 114 0 93.4533 0 68C0 42.5467 20.1605 22 45.1354 22C70.1103 22 90.2708 42.5467 90.2708 68ZM78.2347 68C78.2347 49.2933 63.4905 34.2667 45.1354 34.2667C26.7803 34.2667 12.0361 49.2933 12.0361 68C12.0361 86.7067 26.7803 101.733 45.1354 101.733C63.4905 101.733 78.2347 86.7067 78.2347 68ZM56.2688 69.84C51.1535 69.84 46.9408 74.1333 46.9408 79.3467C46.9408 84.56 51.1535 88.8533 56.2688 88.8533C61.3842 88.8533 65.5968 84.56 65.5968 79.3467C65.5968 74.1333 61.3842 69.84 56.2688 69.84ZM56.2688 47.1467C51.1535 47.1467 46.9408 51.44 46.9408 56.6533C46.9408 61.8667 51.1535 66.16 56.2688 66.16C61.3842 66.16 65.5968 61.8667 65.5968 56.6533C65.5968 51.44 61.3842 47.1467 56.2688 47.1467ZM211.535 40.0933C211.836 40.0933 212.136 40.4 212.437 40.7067V50.52C212.437 51.1333 211.836 51.44 211.535 51.44H195.587C194.985 51.44 194.684 50.8267 194.684 50.52V41.0133C194.684 40.4 195.286 40.0933 195.587 40.0933H211.535V40.0933ZM211.234 53.8933H180.542C180.241 53.8933 179.639 54.2 179.639 54.8133L175.727 70.1467L175.426 71.0667L170.612 54.8133C170.612 54.5067 170.01 53.8933 169.709 53.8933H157.673C157.372 53.8933 156.77 54.2 156.77 54.8133L152.257 70.1467L151.956 71.0667L151.655 70.1467L149.85 62.48L148.044 54.8133C148.044 54.5067 147.442 53.8933 147.141 53.8933H123.069V40.7067C123.069 40.4 122.467 39.7867 121.866 40.0933L106.82 45C106.219 45 105.918 45.3067 105.918 45.92V54.2H102.006C101.705 54.2 101.103 54.5067 101.103 55.12V66.7733C101.103 67.08 101.404 67.6933 102.006 67.6933H105.918V82.1067C105.918 92.2267 111.334 96.8267 121.264 96.8267C125.476 96.8267 129.388 95.9067 132.096 94.3733V82.1067C132.096 81.4933 131.494 81.1867 131.194 81.4933C129.689 82.1067 128.185 82.4133 126.981 82.4133C124.273 82.4133 122.768 81.1867 122.768 78.12V67.6933H131.494C131.795 67.6933 132.397 67.3867 132.397 66.7733V56.96L143.831 95.6C143.831 95.9067 144.433 96.52 144.734 96.52H157.372C157.673 96.52 158.275 96.2133 158.275 95.6L163.691 78.4267L166.399 87.32L168.806 95.6C168.806 95.9067 169.408 96.52 169.709 96.52H182.347C182.648 96.52 183.25 96.2133 183.25 95.6L194.684 56.96V95.6C194.684 95.9067 194.985 96.52 195.587 96.52H210.933C211.234 96.52 211.836 96.2133 211.836 95.6V54.8133C211.836 54.5067 211.535 53.8933 211.234 53.8933V53.8933ZM231.394 40.0933H216.048C215.747 40.0933 215.145 40.4 215.145 41.0133V95.2933C215.145 95.6 215.446 96.2133 216.048 96.2133H231.394C231.695 96.2133 232.297 95.9067 232.297 95.2933V40.7067C232.297 40.4 231.996 40.0933 231.394 40.0933V40.0933ZM251.856 40.0933H235.908C235.607 40.0933 235.005 40.4 235.005 41.0133V50.52C235.005 50.8267 235.306 51.44 235.908 51.44H251.856C252.156 51.44 252.758 51.1333 252.758 50.52V40.7067C252.758 40.4 252.457 40.0933 251.856 40.0933V40.0933ZM251.555 53.8933H236.209C235.908 53.8933 235.306 54.2 235.306 54.8133V94.9867C235.306 95.2933 235.607 95.9067 236.209 95.9067H251.555C251.856 95.9067 252.457 95.6 252.457 94.9867V54.8133C252.457 54.5067 252.156 53.8933 251.555 53.8933ZM300 74.7467C300 86.4 290.371 96.52 276.831 96.52C263.591 96.52 253.962 86.4 253.962 74.7467C253.962 63.0933 263.591 52.9733 277.131 52.9733C290.371 52.9733 300 63.0933 300 74.7467V74.7467ZM283.751 75.0533C283.751 70.76 280.742 67.3867 277.131 67.6933C273.22 67.6933 270.512 71.0667 270.512 75.0533C270.512 79.04 273.521 82.4133 277.131 82.4133C281.043 82.4133 283.751 79.04 283.751 75.0533Z" fill="#9CA3AF"/>
</svg>
