<svg width="300" height="137" viewBox="0 0 300 137" fill="none" xmlns="http://www.w3.org/2000/svg">
<path d="M90.8848 18H9.04849C4.04932 18 0 22.1993 0 27.2985V111.234C0 116.334 4.09932 120.533 9.04849 120.533H90.8848C95.884 120.533 99.9333 116.334 99.9333 111.234V27.2985C99.9333 22.1993 95.834 18 90.8848 18Z" fill="#9CA3AF"/>
<path d="M140.727 98.1362H150.375V54.6935H140.727V98.1362ZM176.021 72.4405C171.071 70.8408 166.522 69.441 166.522 66.3415V66.1916C166.522 63.642 168.672 61.8423 172.471 61.8423C174.271 61.8423 176.321 62.2922 178.47 63.0421C178.47 63.0421 178.47 63.0421 178.57 63.0421C178.72 63.1421 178.92 63.1921 179.17 63.292C180.72 63.792 184.769 64.4919 188.319 58.8928C183.869 55.8433 178.12 53.9436 172.821 53.9436C164.423 53.9436 157.824 58.9428 157.824 67.1914V67.3414C157.824 75.69 164.723 78.2896 171.022 80.0893C175.971 81.639 180.42 82.7888 180.42 86.1882V86.3382C180.42 89.2377 178.02 91.0374 173.921 91.0374C171.221 91.0374 168.172 90.2875 165.122 88.8378C164.223 88.4878 159.773 86.8881 155.874 92.4872C161.123 96.7365 167.672 98.9361 173.671 98.9361C182.42 98.9361 189.318 94.4369 189.318 85.2384V85.1384C189.118 77.2897 182.17 74.4402 176.021 72.4405ZM114.481 86.5882L103.183 54.5935H92.7845L110.082 98.3862H118.73L135.927 54.6935H125.779L114.481 86.5882ZM233.911 53.7437C220.963 53.7437 211.415 64.0419 211.415 76.5398C211.415 88.9378 220.913 99.0861 233.761 99.0861C246.759 99.0861 256.357 88.7878 256.357 76.3899C256.307 63.892 246.759 53.7437 233.911 53.7437ZM233.911 90.4875C226.412 90.4875 221.063 84.0886 221.063 76.3899C221.063 68.7411 226.012 62.4422 233.761 62.4422C241.36 62.4422 246.709 68.8411 246.709 76.5398C246.609 84.1886 241.66 90.4875 233.911 90.4875ZM284.903 53.7437C278.404 53.7437 274.454 57.2931 271.705 61.3924V54.6935H262.056V98.1362H271.705V73.5903C271.705 66.8915 275.554 62.7921 281.203 62.7921C286.952 62.7921 290.202 66.6415 290.202 73.4404V98.0862H299.9V70.5408C299.9 60.3925 294.401 53.7437 284.903 53.7437ZM195.467 98.1362H205.116V54.6935H195.467V98.1362Z" fill="#9CA3AF"/>
<path d="M34.4942 48.9947C37.7436 48.9947 40.4432 46.3951 40.4432 43.0457C40.4432 39.6463 37.7436 37.0967 34.4942 37.0967C31.2447 37.0967 28.5452 39.6962 28.5452 43.0457C28.5452 46.3951 31.2447 48.9947 34.4942 48.9947Z" fill="white"/>
<path d="M21.5964 83.3887C21.2465 84.9385 20.9965 86.5382 20.9965 87.838C20.9965 93.1371 23.896 96.6365 30.145 96.6365C35.2941 96.6365 39.4434 93.637 42.4429 88.8378L40.5932 96.0866H50.8415L56.6905 73.1404C58.1903 67.3914 61.0398 64.2919 65.2391 64.2919C68.6386 64.2919 70.7382 66.3416 70.7382 69.741C70.7382 70.7408 70.6382 71.7907 70.3383 72.9905L67.3388 83.5387C66.9388 85.0884 66.6889 86.5382 66.6889 87.988C66.6889 93.0371 69.6884 96.6865 75.9873 96.6865C81.3864 96.6865 85.7357 93.2871 88.0353 85.1384L84.036 83.5887C82.0363 89.0378 80.2866 89.9876 78.8868 89.9876C77.5371 89.9876 76.7872 89.0878 76.7872 87.2881C76.7872 86.4882 76.9372 85.5883 77.1871 84.5385L80.2866 74.2902C81.0365 71.8406 81.2864 69.741 81.2864 67.7913C81.2864 60.0926 76.5372 56.0933 70.7882 56.0933C65.3891 56.0933 59.89 60.7925 57.1405 65.8416L59.1401 56.8431H43.4927L41.2431 64.7418H48.5419L44.0426 82.3889C40.4432 90.0876 33.9943 90.1876 33.2445 90.0376C31.8947 89.6877 31.0948 89.2377 31.0948 87.538C31.0948 86.5382 31.2448 85.1884 31.7447 83.4887L38.5436 56.9431H21.2465L18.9968 64.8418H26.2456L21.5964 83.3887Z" fill="white"/>
</svg>
