<svg width="396" height="137" viewBox="0 0 396 137" fill="none" xmlns="http://www.w3.org/2000/svg">
<path fill-rule="evenodd" clip-rule="evenodd" d="M231.004 40.0002C234.139 40.0549 237.273 40.0549 240.408 40.0112C240.364 49.6321 240.441 59.2534 240.364 68.8735C247.439 63.3666 254.448 57.7732 261.478 52.2006C263.492 54.704 265.451 57.2616 267.443 59.786C262.578 63.4543 257.866 67.3395 253.087 71.1163C258.105 76.8412 262.927 82.7395 267.9 88.5191C265.451 90.5756 263.057 92.72 260.64 94.8215C255.677 88.8237 250.552 82.9684 245.621 76.9607C243.901 78.3764 242.171 79.78 240.408 81.1398C240.386 85.6572 240.397 90.1737 240.397 94.6899C237.262 94.6473 234.139 94.6473 231.016 94.6571C231.026 76.4382 231.037 58.2192 231.004 40.0002ZM386.248 40.0002C389.47 40.0549 392.702 40.0549 395.925 40.0549C395.902 58.2301 395.871 76.4174 395.944 94.5923C392.713 94.6571 389.493 94.6571 386.27 94.6571C386.27 94.0916 386.27 92.9489 386.27 92.3725C378.172 96.1923 367.366 95.332 361.12 88.4983C354.643 81.063 354.153 69.2121 359.279 60.9397C364.787 52.0811 377.359 50.2086 386.281 54.6603C386.304 49.7735 386.326 44.8867 386.248 40.0002ZM372.024 61.7888C365.189 64.1281 363.676 73.0425 365.983 79.104C368.421 86.3859 379.207 88.2804 384.245 82.6637C387.891 78.3764 388.217 71.8998 386.009 66.8716C383.734 61.7231 377.053 59.7103 372.024 61.7888V61.7888ZM102.36 58.7089C108.248 52.5928 117.858 50.9263 125.737 53.7234C129.896 55.0188 133.356 57.7842 136.48 60.7226C134.368 62.6928 132.333 64.7286 130.32 66.7841C126.119 62.2238 119.295 59.3948 113.287 62.0289C104.493 65.7289 104.079 80.1502 112.482 84.5352C118.543 87.7673 125.966 84.9503 130.31 80.1382C132.322 82.1959 134.368 84.2426 136.437 86.2664C128.524 95.2784 113.559 97.6506 104.024 89.8469C95.1876 82.2607 94.7515 67.3176 102.36 58.7089V58.7089ZM153.339 52.995C159.749 51.6133 166.911 52.3858 172.363 56.249C183.932 64.8361 182.866 85.9618 169.577 92.3495C161.447 96.04 150.726 95.3757 144.077 89.0197C137.732 82.7504 136.774 72.5637 139.768 64.4765C141.966 58.6442 147.255 54.2572 153.339 52.995V52.995ZM154.503 61.9411C147.614 64.5643 146.265 73.5872 148.931 79.6812C152.141 87.2459 164.026 87.9965 168.533 81.3151C171.275 77.1997 171.351 71.617 169.479 67.1336C166.9 61.7778 159.847 59.558 154.503 61.9411V61.9411ZM198.985 52.995C206.864 51.2321 216.279 52.9619 221.459 59.6228C227.532 67.7308 227.401 80.1502 220.915 87.9965C213.972 95.6694 201.412 96.4857 192.737 91.4247C181.691 84.4485 180.744 66.8497 189.734 57.8279C192.28 55.3792 195.557 53.7675 198.985 52.995V52.995ZM201.151 61.5927C193.412 63.5848 191.736 73.3581 194.577 79.8019C197.701 86.7452 208.279 87.9208 213.264 82.3908C216.628 78.681 216.91 73.0756 215.571 68.4505C213.808 62.6491 206.744 59.6006 201.151 61.5927V61.5927ZM272.003 52.298C275.214 52.3308 278.414 52.3308 281.624 52.298L281.45 54.5517C288.437 51.4927 297.123 51.3513 303.587 55.7374C313.481 62.7256 314.656 78.2998 307.451 87.5833C301.4 95.2456 289.982 96.2677 281.505 92.3725C281.7 97.2472 281.635 102.123 281.591 107C278.392 106.923 275.204 106.923 272.014 106.945C272.047 88.737 272.057 70.518 272.003 52.298V52.298ZM287.142 61.7571C280.209 64.7494 279.132 74.1964 282.059 80.4111C285.455 87.5615 297.013 87.7138 300.889 80.9653C303.99 75.4267 303.576 67.3176 298.385 63.1716C295.184 60.7667 290.853 60.3742 287.142 61.7571ZM318.15 55.7166C325.073 53.0497 332.875 51.3087 340.201 53.2446C346.621 54.9321 350.996 61.3978 351.051 67.8951C351.161 76.8194 350.975 85.7329 351.138 94.6473C348.112 94.6473 345.097 94.6473 342.072 94.6473C342.094 93.5581 342.116 92.4701 342.159 91.3809C335.695 94.9191 327.02 96.4102 320.588 92.0449C314.145 87.8879 313.948 77.3419 320.087 72.8147C326.388 67.9597 334.779 69.0586 342.224 68.9173C341.898 66.3053 341.321 63.2692 338.622 62.0934C332.702 59.7311 326.236 61.8438 320.458 63.6821C319.739 61.0054 318.988 58.3496 318.15 55.7166V55.7166ZM326.04 78.865C323.406 80.0518 323.396 84.2196 326.106 85.276C331.591 88.0184 337.958 85.0468 342.116 81.2383C342.116 80.3014 342.105 78.419 342.105 77.4723C336.783 77.8429 330.992 76.3504 326.04 78.865Z" fill="#9CA3AF"/>
<path fill-rule="evenodd" clip-rule="evenodd" d="M31.9873 56.1472C32.5269 51.622 36.6815 47.6216 41.3831 48.2382C45.5453 48.3924 50.1853 52.7789 48.4435 57.1107C49.5226 57.6649 50.6017 58.2283 51.6654 58.8064C53.207 55.045 57.2768 52.3087 61.3848 53.2098C66.6571 53.989 70.1024 60.432 67.5356 65.1884C66.1022 68.4481 62.6105 70.0282 59.2344 70.2517C59.2497 69.0423 59.3268 67.8314 59.2576 66.6213C58.6873 64.9873 55.7198 65.1491 55.6117 66.9682C54.8795 71.3 54.5558 75.6937 53.8853 80.0333C45.3526 80.0718 36.8123 79.9637 28.272 80.0793C26.6536 79.933 25.3277 81.8909 26.3916 83.2476C26.7846 84.2415 28.1181 83.9488 28.9506 84.0644C37.1362 84.0488 45.3143 84.0567 53.4999 84.0488C53.207 86.1146 52.9293 88.1803 52.6057 90.2461C42.6241 90.1533 32.6347 90.2382 22.6456 90.1997C23.5473 83.4093 24.2795 76.6033 25.2509 69.8285C21.0961 69.6358 17.1035 66.4525 16.7027 62.1893C16.0861 57.8969 19.3234 53.5651 23.5858 52.886C26.7846 52.0852 29.883 53.8503 31.9873 56.1472" fill="white"/>
<path fill-rule="evenodd" clip-rule="evenodd" d="M34.7161 28.5988C44.2581 26.9115 54.3785 28.83 62.6644 33.8332C73.1238 39.9763 80.6778 50.9129 82.4036 62.9524C83.8912 71.4233 82.5732 80.3262 78.7046 88.003C73.1163 99.2949 62.1095 107.712 49.7461 110.148C38.747 112.29 26.8539 109.971 17.7048 103.411C7.16072 96.3353 0.601005 83.9564 0.092468 71.3316C-0.685834 60.4936 3.49925 49.564 10.7524 41.5633C17.0265 34.7804 25.5667 30.0401 34.7161 28.5988V28.5988ZM30.1914 49.7798C27.5861 48.8626 24.742 48.4009 22.0211 49.1485C16.3096 50.428 12.1088 56.2474 12.6023 62.0737C12.8488 67.0221 16.4255 71.2846 20.9189 73.1116C20.1944 78.6844 19.5239 84.2647 18.8149 89.8375C18.7838 91.0711 18.2599 92.4428 18.9612 93.5758C19.7552 94.3776 20.996 94.1617 22.0058 94.2695C32.3036 94.2542 42.6009 94.2542 52.8987 94.2695C54.1397 94.2695 56.136 94.2463 56.2206 92.5816C57.0995 86.4461 57.8009 80.272 58.5254 74.1136C64.5681 74.5376 70.7266 70.5292 71.9752 64.4632C73.6017 58.3979 69.7478 51.5526 63.7359 49.7798C59.8204 48.3693 55.4962 49.4407 52.1357 51.7068C50.4936 48.4009 47.6574 45.603 44.0191 44.6464C38.8934 43.044 33.1974 45.4789 30.1914 49.7798Z" fill="#9CA3AF"/>
<path fill-rule="evenodd" clip-rule="evenodd" d="M30.1914 49.7798C33.1974 45.4789 38.8934 43.044 44.0191 44.6464C47.6574 45.603 50.4936 48.4009 52.1357 51.7068C55.4961 49.4407 59.82 48.3701 63.7359 49.7798C69.7478 51.5526 73.6017 58.3979 71.9752 64.4632C70.7266 70.5292 64.5681 74.5376 58.5254 74.1136C57.8009 80.272 57.0991 86.4461 56.2206 92.5816C56.1359 94.2463 54.1397 94.2695 52.8987 94.2695C42.6009 94.2542 32.3035 94.2542 22.0058 94.2695C20.996 94.1617 19.7552 94.3776 18.9612 93.5758C18.2599 92.4429 18.7838 91.0711 18.8149 89.8375C19.5239 84.2647 20.1944 78.6844 20.9189 73.1116C16.4255 71.2846 12.8488 67.0222 12.6022 62.0738C12.1088 56.2474 16.3095 50.4281 22.0211 49.1486C24.742 48.4009 27.5861 48.8626 30.1914 49.7798V49.7798ZM31.9873 56.1472C29.883 53.8503 26.7846 52.0852 23.5859 52.8861C19.3234 53.5651 16.0861 57.8969 16.7027 62.1894C17.1035 66.4526 21.0962 69.6359 25.2509 69.8286C24.2796 76.6033 23.5473 83.4093 22.6456 90.1997C32.6347 90.2383 42.6241 90.1533 52.6057 90.2461C52.9293 88.1804 53.207 86.1146 53.5 84.0488C45.3143 84.0567 37.1362 84.0488 28.9506 84.0645C28.1181 83.9489 26.7846 84.2415 26.3916 83.2477C25.3277 81.891 26.6536 79.933 28.272 80.0793C36.8123 79.9637 45.3526 80.0719 53.8853 80.0333C54.5558 75.6937 54.8795 71.3 55.6117 66.9682C55.7198 65.1492 58.6873 64.9873 59.2576 66.6214C59.3268 67.8315 59.2497 69.0424 59.2344 70.2517C62.6105 70.0282 66.1022 68.4481 67.5356 65.1885C70.1024 60.432 66.6571 53.9891 61.3848 53.2098C57.2768 52.308 53.207 55.045 51.6654 58.8064C50.6017 58.2283 49.5226 57.6657 48.4435 57.1107C50.1853 52.7789 45.5453 48.3924 41.3831 48.2383C36.6815 47.6217 32.5269 51.622 31.9873 56.1472" fill="#9CA3AF"/>
</svg>
