<svg width="373" height="56" viewBox="0 0 373 56" fill="none" xmlns="http://www.w3.org/2000/svg">
<path d="M74.9132 45.4796C71.7318 45.4796 68.9661 44.7602 66.616 43.3214C64.282 41.8666 62.4755 39.8123 61.1965 37.1585C59.9336 34.5047 59.3021 31.3713 59.3021 27.7583C59.3021 24.0813 59.9655 20.9079 61.2924 18.2381C62.6353 15.5524 64.5058 13.4821 66.9038 12.0273C69.3018 10.5725 72.0995 9.84508 75.2969 9.84508C77.3592 9.84508 79.2376 10.1728 80.9322 10.8283C82.6268 11.4837 84.0976 12.379 85.3446 13.514C86.6075 14.6491 87.5907 15.936 88.2941 17.3748C89.0135 18.7977 89.4052 20.2764 89.4691 21.8112H82.0833C81.8754 20.7081 81.4598 19.7009 80.8363 18.7897C80.2288 17.8784 79.4454 17.151 78.4862 16.6075C77.527 16.0479 76.4079 15.7682 75.129 15.7682C73.5943 15.7682 72.2034 16.1678 70.9565 16.9672C69.7095 17.7505 68.7263 19.0055 68.0069 20.7321C67.2875 22.4586 66.9278 24.7368 66.9278 27.5664C66.9278 29.8525 67.1596 31.755 67.6232 33.2737C68.1028 34.7924 68.7423 35.9994 69.5416 36.8947C70.341 37.774 71.2522 38.3975 72.2754 38.7652C73.2985 39.1329 74.3457 39.3167 75.4168 39.3167C76.4399 39.3167 77.3512 39.1488 78.1505 38.8131C78.9658 38.4614 79.6613 38.0138 80.2368 37.4702C80.8123 36.9267 81.2679 36.3352 81.6036 35.6957C81.9394 35.0402 82.1552 34.4008 82.2511 33.7773L82.5149 31.667H75.3448V26.823L89.8528 26.895V45H85.0808V40.4677C84.4893 41.2511 83.7539 42.0345 82.8746 42.8178C82.0113 43.5852 80.9322 44.2246 79.6373 44.7362C78.3583 45.2318 76.7836 45.4796 74.9132 45.4796ZM99.7465 34.2089C99.7305 35.4719 99.9304 36.575 100.346 37.5182C100.762 38.4454 101.361 39.1648 102.145 39.6764C102.944 40.172 103.903 40.4198 105.022 40.4198C106.221 40.4198 107.268 40.164 108.164 39.6524C109.075 39.1408 109.706 38.3015 110.058 37.1345H116.365C116.093 38.8931 115.39 40.3958 114.255 41.6428C113.135 42.8897 111.777 43.841 110.178 44.4964C108.579 45.1519 106.917 45.4796 105.19 45.4796C102.744 45.4796 100.586 44.968 98.7154 43.9449C96.8609 42.9057 95.4141 41.4429 94.375 39.5565C93.3358 37.6701 92.8162 35.4479 92.8162 32.89C92.8162 30.4121 93.2879 28.1819 94.2311 26.1996C95.1743 24.2012 96.5412 22.6265 98.3317 21.4755C100.138 20.3084 102.304 19.7249 104.83 19.7249C107.356 19.7249 109.474 20.2605 111.185 21.3316C112.912 22.3867 114.207 23.8655 115.07 25.7679C115.949 27.6543 116.389 29.8365 116.389 32.3145V34.2089H99.7465ZM99.7225 30.0364H109.842C109.842 29.0452 109.658 28.134 109.291 27.3026C108.923 26.4713 108.363 25.8159 107.612 25.3363C106.877 24.8567 105.949 24.6169 104.83 24.6169C103.743 24.6169 102.816 24.8806 102.049 25.4082C101.297 25.9198 100.722 26.5912 100.322 27.4225C99.9224 28.2539 99.7225 29.1251 99.7225 30.0364ZM133.163 25.0725H127.648L127.696 38.2856C127.696 38.8931 127.768 39.3487 127.912 39.6524C128.071 39.9402 128.311 40.132 128.631 40.2279C128.967 40.3079 129.39 40.3478 129.902 40.3478H133.235V44.6643C132.915 44.8082 132.412 44.944 131.724 45.0719C131.053 45.1998 130.11 45.2638 128.895 45.2638C126.721 45.2638 125.034 44.984 123.835 44.4245C122.652 43.8649 121.829 43.0816 121.365 42.0744C120.901 41.0673 120.67 39.9002 120.67 38.5733V25.0725H116.641V20.2045H120.909L122.66 12.7227H127.648V20.1805H133.163V25.0725ZM149.846 45.4796C148.136 45.4796 146.457 45.2638 144.81 44.8321C143.164 44.4005 141.661 43.753 140.302 42.8897C138.943 42.0265 137.816 40.9474 136.921 39.6524C136.042 38.3575 135.514 36.8388 135.338 35.0962H142.508C142.748 36.1513 143.204 37.0386 143.875 37.758C144.547 38.4774 145.394 39.0289 146.417 39.4126C147.44 39.7963 148.575 39.9881 149.822 39.9881C151.101 39.9881 152.268 39.8283 153.323 39.5085C154.379 39.1888 155.226 38.7092 155.865 38.0697C156.505 37.4143 156.825 36.5989 156.825 35.6238C156.825 34.7445 156.561 34.0251 156.033 33.4655C155.522 32.906 154.826 32.4504 153.947 32.0987C153.068 31.747 152.068 31.4592 150.949 31.2354L144.954 30.0124C142.333 29.5168 140.254 28.4777 138.72 26.895C137.185 25.2963 136.393 23.1701 136.345 20.5163C136.33 18.3421 136.905 16.4636 138.072 14.8809C139.255 13.2822 140.854 12.0513 142.868 11.188C144.898 10.3247 147.169 9.89304 149.678 9.89304C152.668 9.89304 155.178 10.3646 157.208 11.3079C159.255 12.2351 160.805 13.4981 161.86 15.0967C162.931 16.6794 163.483 18.446 163.515 20.3964H156.489C156.361 19.1814 155.993 18.2142 155.386 17.4948C154.778 16.7753 153.995 16.2558 153.036 15.936C152.092 15.6163 151.013 15.4564 149.798 15.4564C148.871 15.4564 148.024 15.5603 147.256 15.7682C146.505 15.976 145.866 16.2718 145.338 16.6554C144.81 17.0231 144.403 17.4628 144.115 17.9744C143.827 18.4859 143.683 19.0615 143.683 19.7009C143.683 20.7081 144.019 21.5234 144.691 22.1469C145.362 22.7704 146.617 23.282 148.455 23.6816L154.403 24.9046C156.529 25.3203 158.215 25.9358 159.462 26.7511C160.725 27.5664 161.669 28.4857 162.292 29.5088C162.932 30.532 163.347 31.5791 163.539 32.6502C163.747 33.7053 163.851 34.6805 163.851 35.5758C163.851 37.4462 163.259 39.1329 162.076 40.6356C160.909 42.1224 159.279 43.3054 157.184 44.1847C155.09 45.048 152.644 45.4796 149.846 45.4796ZM177.136 19.7249C179.214 19.7249 181.005 20.1486 182.507 20.9959C184.026 21.8432 185.217 22.9862 186.08 24.425C186.96 25.8638 187.463 27.4705 187.591 29.245H181.764C181.652 28.5896 181.42 27.9421 181.068 27.3026C180.717 26.6472 180.221 26.1116 179.582 25.696C178.942 25.2643 178.143 25.0485 177.184 25.0485C175.553 25.0485 174.226 25.68 173.203 26.9429C172.196 28.1899 171.692 30.0923 171.692 32.6502C171.692 35.0642 172.188 36.9826 173.179 38.4055C174.17 39.8123 175.553 40.5157 177.328 40.5157C178.271 40.5157 179.054 40.2839 179.678 39.8203C180.317 39.3567 180.813 38.8051 181.164 38.1657C181.516 37.5102 181.74 36.9027 181.836 36.3432H187.519C187.407 38.0537 186.912 39.6045 186.032 40.9953C185.153 42.3702 183.954 43.4653 182.435 44.2806C180.933 45.0799 179.166 45.4796 177.136 45.4796C174.834 45.4796 172.779 44.968 170.973 43.9449C169.166 42.9217 167.744 41.4589 166.704 39.5565C165.681 37.6381 165.17 35.352 165.17 32.6982C165.17 30.1403 165.665 27.8862 166.656 25.9358C167.648 23.9854 169.038 22.4666 170.829 21.3795C172.635 20.2765 174.738 19.7249 177.136 19.7249ZM190.015 45V20.2045H196.753V26.0797C197.153 24.8167 197.713 23.7136 198.432 22.7704C199.167 21.8112 200.055 21.0678 201.094 20.5402C202.133 19.9967 203.308 19.7249 204.619 19.7249C204.843 19.7249 205.051 19.7409 205.242 19.7729C205.45 19.7889 205.602 19.8208 205.698 19.8688V26.5353C205.554 26.4713 205.378 26.4314 205.17 26.4154C204.979 26.3994 204.803 26.3834 204.643 26.3674C203.268 26.2555 202.093 26.2955 201.118 26.4873C200.143 26.6792 199.351 27.0069 198.744 27.4705C198.136 27.9341 197.697 28.5016 197.425 29.1731C197.153 29.8445 197.017 30.5959 197.017 31.4272V45H190.015ZM212.762 34.2089C212.746 35.4719 212.946 36.575 213.362 37.5182C213.778 38.4454 214.377 39.1648 215.16 39.6764C215.96 40.172 216.919 40.4198 218.038 40.4198C219.237 40.4198 220.284 40.164 221.179 39.6524C222.091 39.1408 222.722 38.3015 223.074 37.1345H229.381C229.109 38.8931 228.405 40.3958 227.27 41.6428C226.151 42.8897 224.792 43.841 223.194 44.4964C221.595 45.1519 219.932 45.4796 218.206 45.4796C215.76 45.4796 213.602 44.968 211.731 43.9449C209.877 42.9057 208.43 41.4429 207.391 39.5565C206.352 37.6701 205.832 35.4479 205.832 32.89C205.832 30.4121 206.304 28.1819 207.247 26.1996C208.19 24.2012 209.557 22.6265 211.348 21.4755C213.154 20.3084 215.32 19.7249 217.846 19.7249C220.372 19.7249 222.49 20.2605 224.201 21.3316C225.928 22.3867 227.222 23.8655 228.086 25.7679C228.965 27.6543 229.405 29.8365 229.405 32.3145V34.2089H212.762ZM212.738 30.0364H222.858C222.858 29.0452 222.674 28.134 222.307 27.3026C221.939 26.4713 221.379 25.8159 220.628 25.3363C219.893 24.8567 218.965 24.6169 217.846 24.6169C216.759 24.6169 215.832 24.8806 215.064 25.4082C214.313 25.9198 213.738 26.5912 213.338 27.4225C212.938 28.2539 212.738 29.1251 212.738 30.0364ZM237.623 34.2089C237.607 35.4719 237.807 36.575 238.223 37.5182C238.638 38.4454 239.238 39.1648 240.021 39.6764C240.82 40.172 241.78 40.4198 242.899 40.4198C244.098 40.4198 245.145 40.164 246.04 39.6524C246.951 39.1408 247.583 38.3015 247.935 37.1345H254.241C253.97 38.8931 253.266 40.3958 252.131 41.6428C251.012 42.8897 249.653 43.841 248.054 44.4964C246.456 45.1519 244.793 45.4796 243.067 45.4796C240.621 45.4796 238.462 44.968 236.592 43.9449C234.737 42.9057 233.291 41.4429 232.252 39.5565C231.212 37.6701 230.693 35.4479 230.693 32.89C230.693 30.4121 231.164 28.1819 232.108 26.1996C233.051 24.2012 234.418 22.6265 236.208 21.4755C238.015 20.3084 240.181 19.7249 242.707 19.7249C245.233 19.7249 247.351 20.2605 249.062 21.3316C250.788 22.3867 252.083 23.8655 252.946 25.7679C253.826 27.6543 254.265 29.8365 254.265 32.3145V34.2089H237.623ZM237.599 30.0364H247.719C247.719 29.0452 247.535 28.134 247.167 27.3026C246.8 26.4713 246.24 25.8159 245.489 25.3363C244.753 24.8567 243.826 24.6169 242.707 24.6169C241.62 24.6169 240.693 24.8806 239.925 25.4082C239.174 25.9198 238.598 26.5912 238.199 27.4225C237.799 28.2539 237.599 29.1251 237.599 30.0364ZM256.729 45V20.2045H263.611V23.7056C263.995 23.0981 264.49 22.5146 265.098 21.9551C265.721 21.3795 266.504 20.9079 267.448 20.5402C268.391 20.1725 269.51 19.9887 270.805 19.9887C272.324 19.9887 273.738 20.2844 275.049 20.876C276.376 21.4675 277.447 22.4027 278.263 23.6816C279.078 24.9446 279.486 26.5992 279.486 28.6455V45H272.484V29.5088C272.484 28.1659 272.084 27.1588 271.284 26.4873C270.485 25.8159 269.51 25.4801 268.359 25.4801C267.592 25.4801 266.848 25.616 266.129 25.8878C265.425 26.1596 264.85 26.5672 264.402 27.1108C263.955 27.6543 263.731 28.3258 263.731 29.1251V45H256.729ZM292.287 45.4796C290.56 45.4796 288.898 45.1998 287.299 44.6403C285.7 44.0648 284.35 43.1695 283.246 41.9545C282.143 40.7235 281.44 39.1329 281.136 37.1825H287.203C287.411 38.0617 287.787 38.7572 288.33 39.2687C288.89 39.7803 289.521 40.148 290.225 40.3718C290.928 40.5797 291.6 40.6836 292.239 40.6836C293.582 40.6836 294.661 40.4757 295.476 40.0601C296.308 39.6284 296.723 38.973 296.723 38.0937C296.723 37.4223 296.476 36.8867 295.98 36.487C295.5 36.0874 294.701 35.7836 293.582 35.5758L289.218 34.6645C287.027 34.2009 285.269 33.4176 283.942 32.3145C282.615 31.1954 281.936 29.6127 281.904 27.5664C281.904 26.0796 282.295 24.7448 283.079 23.5617C283.878 22.3787 285.053 21.4435 286.604 20.7561C288.154 20.0686 290.057 19.7249 292.311 19.7249C295.364 19.7249 297.802 20.3964 299.625 21.7392C301.463 23.0821 302.399 24.9766 302.431 27.4225H296.579C296.404 26.4633 295.924 25.7279 295.141 25.2164C294.373 24.6888 293.406 24.425 292.239 24.425C291.024 24.425 290.025 24.6408 289.242 25.0725C288.458 25.5041 288.066 26.1596 288.066 27.0389C288.066 27.6943 288.386 28.2139 289.026 28.5976C289.665 28.9653 290.656 29.285 291.999 29.5568L296.028 30.468C297.419 30.8037 298.546 31.2674 299.409 31.8589C300.288 32.4344 300.968 33.0659 301.447 33.7533C301.927 34.4407 302.255 35.1362 302.431 35.8396C302.622 36.527 302.718 37.1505 302.718 37.71C302.718 39.3567 302.279 40.7635 301.399 41.9305C300.52 43.0816 299.297 43.9609 297.73 44.5684C296.164 45.1759 294.349 45.4796 292.287 45.4796ZM305.232 45V9.36548H312.186V23.7776C312.586 23.202 313.09 22.6345 313.697 22.075C314.305 21.4994 315.064 21.0198 315.975 20.6362C316.887 20.2525 317.998 20.0606 319.309 20.0606C320.891 20.0606 322.33 20.3724 323.625 20.9959C324.936 21.6034 325.983 22.4906 326.766 23.6577C327.566 24.8247 327.965 26.2475 327.965 27.9261V45H320.939V28.9573C320.939 27.8382 320.531 26.9829 319.716 26.3914C318.917 25.7839 317.942 25.4801 316.791 25.4801C316.039 25.4801 315.312 25.616 314.608 25.8878C313.905 26.1596 313.329 26.5752 312.882 27.1348C312.45 27.6783 312.234 28.3578 312.234 29.1731V45H305.232ZM341.911 45.4796C339.481 45.4796 337.363 44.96 335.556 43.9209C333.766 42.8818 332.375 41.411 331.384 39.5085C330.408 37.6061 329.921 35.352 329.921 32.7461C329.921 30.1403 330.408 27.8622 331.384 25.9118C332.375 23.9614 333.766 22.4427 335.556 21.3556C337.363 20.2685 339.489 19.7249 341.935 19.7249C344.381 19.7249 346.499 20.2605 348.29 21.3316C350.08 22.3867 351.463 23.8895 352.438 25.8398C353.413 27.7902 353.901 30.0923 353.901 32.7461C353.901 35.2401 353.421 37.4462 352.462 39.3647C351.519 41.2671 350.152 42.7619 348.362 43.849C346.587 44.9361 344.437 45.4796 341.911 45.4796ZM341.935 40.2759C343.166 40.2759 344.157 39.9162 344.908 39.1968C345.66 38.4774 346.203 37.5342 346.539 36.3671C346.891 35.1841 347.067 33.8972 347.067 32.5063C347.067 31.1954 346.907 29.9564 346.587 28.7894C346.283 27.6224 345.756 26.6792 345.004 25.9597C344.253 25.2403 343.23 24.8806 341.935 24.8806C340.704 24.8806 339.705 25.2244 338.937 25.9118C338.186 26.5832 337.634 27.5025 337.283 28.6695C336.931 29.8206 336.755 31.0995 336.755 32.5063C336.755 33.8013 336.915 35.0482 337.235 36.2472C337.555 37.4303 338.09 38.3975 338.841 39.1488C339.593 39.9002 340.624 40.2759 341.935 40.2759ZM370.483 25.0725H364.967L365.015 38.2856C365.015 38.8931 365.087 39.3487 365.231 39.6524C365.391 39.9402 365.631 40.132 365.95 40.2279C366.286 40.3079 366.71 40.3478 367.221 40.3478H370.554V44.6643C370.235 44.8082 369.731 44.944 369.044 45.0719C368.372 45.1998 367.429 45.2638 366.214 45.2638C364.04 45.2638 362.353 44.984 361.154 44.4245C359.971 43.8649 359.148 43.0816 358.684 42.0744C358.221 41.0673 357.989 39.9002 357.989 38.5733V25.0725H353.96V20.2045H358.229L359.979 12.7227H364.967V20.1805H370.483V25.0725Z" fill="#DB1425"/>
<circle cx="25" cy="28" r="25" fill="#DB1425"/>
<path fill-rule="evenodd" clip-rule="evenodd" d="M12.118 22.9998H23.8846L21.7667 33.769H10L12.118 22.9998Z" fill="white"/>
<path fill-rule="evenodd" clip-rule="evenodd" d="M27.4641 22.9998H39.2307L37.1127 33.769H25.3461L27.4641 22.9998Z" fill="white"/>
</svg>
