<svg width="390" height="50" viewBox="0 0 390 50" fill="none" xmlns="http://www.w3.org/2000/svg">
<path d="M75.513 43.3825C70.266 43.3825 66.207 41.947 63.336 39.076C60.498 36.205 59.079 31.783 59.079 25.81C59.079 19.969 60.597 15.58 63.633 12.643C66.669 9.706 70.959 8.2375 76.503 8.2375C79.44 8.2375 82.113 8.6995 84.522 9.6235C86.964 10.5145 88.8945 11.884 90.3135 13.732C91.7655 15.547 92.4915 17.7745 92.4915 20.4145H85.0665C85.0665 18.5665 84.2415 17.098 82.5915 16.009C80.9745 14.887 79.0275 14.326 76.7505 14.326C73.2855 14.326 70.695 15.25 68.979 17.098C67.296 18.946 66.4545 21.6025 66.4545 25.0675V26.5525C66.4545 30.1825 67.23 32.8885 68.781 34.6705C70.365 36.4195 72.774 37.294 76.008 37.294C78.681 37.294 80.892 36.667 82.641 35.413C84.39 34.126 85.281 32.3935 85.314 30.2155H75.018V24.325H92.4915V42.7885H87.5415L86.898 39.0265C85.314 40.5445 83.6475 41.65 81.8985 42.343C80.1495 43.036 78.021 43.3825 75.513 43.3825Z" fill="#DB1425"/>
<path d="M108.298 43.3825C104.107 43.3825 100.972 42.277 98.8928 40.066C96.8468 37.855 95.8238 34.423 95.8238 29.77C95.8238 25.117 96.8468 21.685 98.8928 19.474C100.972 17.263 104.107 16.1575 108.298 16.1575C112.159 16.1575 115.046 17.2795 116.96 19.5235C118.874 21.7345 119.831 25.15 119.831 29.77V31.354H102.704C102.77 33.664 103.232 35.38 104.09 36.502C104.948 37.591 106.384 38.1355 108.397 38.1355C109.816 38.1355 110.954 37.7395 111.812 36.9475C112.703 36.1555 113.149 35.0335 113.149 33.5815H119.831C119.831 36.8485 118.775 39.307 116.663 40.957C114.551 42.574 111.763 43.3825 108.298 43.3825ZM112.802 26.8495C112.802 23.2525 111.301 21.454 108.298 21.454C106.582 21.454 105.278 21.8995 104.387 22.7905C103.529 23.6815 103.001 25.0345 102.803 26.8495H112.802Z" fill="#DB1425"/>
<path d="M130.556 43.3825C128.114 43.3825 126.365 42.7225 125.309 41.4025C124.253 40.0825 123.725 38.416 123.725 36.403V22.2955H120.607V16.7515H123.874L125.012 9.4255H130.507V16.7515H135.011V22.2955H130.507V35.71C130.507 37.129 131.216 37.8385 132.635 37.8385H135.011V42.5905C134.45 42.7885 133.741 42.97 132.883 43.135C132.058 43.3 131.282 43.3825 130.556 43.3825Z" fill="#DB1425"/>
<path d="M151.396 43.3825C148.789 43.3825 146.397 42.9865 144.219 42.1945C142.074 41.3695 140.358 40.165 139.071 38.581C137.784 36.997 137.14 35.083 137.14 32.839L137.19 31.75H144.466L144.417 32.542C144.417 33.994 145.06 35.149 146.347 36.007C147.634 36.865 149.433 37.294 151.743 37.294C154.185 37.294 155.95 36.9805 157.039 36.3535C158.128 35.6935 158.673 34.819 158.673 33.73C158.673 32.773 158.31 31.981 157.584 31.354C156.891 30.694 156 30.1825 154.911 29.8195C153.855 29.4235 152.386 28.9615 150.505 28.4335C147.832 27.6745 145.671 26.9485 144.021 26.2555C142.371 25.5625 140.952 24.5395 139.764 23.1865C138.576 21.8005 137.982 19.9855 137.982 17.7415C137.982 14.6395 139.236 12.28 141.744 10.663C144.252 9.046 147.585 8.2375 151.743 8.2375C155.67 8.2375 158.871 9.079 161.346 10.762C163.854 12.412 165.108 14.9035 165.108 18.2365V18.8305H157.98V18.385C157.98 17.131 157.402 16.141 156.247 15.415C155.125 14.689 153.591 14.326 151.644 14.326C149.565 14.326 147.964 14.6065 146.842 15.1675C145.753 15.7285 145.209 16.504 145.209 17.494C145.209 18.253 145.539 18.913 146.199 19.474C146.859 20.002 147.684 20.4475 148.674 20.8105C149.664 21.1405 151.066 21.553 152.881 22.048C155.587 22.774 157.798 23.5 159.514 24.226C161.263 24.919 162.765 25.9585 164.019 27.3445C165.273 28.7305 165.9 30.5455 165.9 32.7895C165.9 36.4195 164.596 39.0925 161.989 40.8085C159.415 42.5245 155.884 43.3825 151.396 43.3825Z" fill="#DB1425"/>
<path d="M180.898 43.3825C176.74 43.3825 173.621 42.277 171.542 40.066C169.496 37.855 168.473 34.423 168.473 29.77C168.473 25.15 169.496 21.7345 171.542 19.5235C173.621 17.2795 176.74 16.1575 180.898 16.1575C184.363 16.1575 187.118 17.0485 189.164 18.8305C191.243 20.5795 192.283 23.1535 192.283 26.5525H185.452C185.452 24.9685 185.039 23.7475 184.214 22.8895C183.389 22.0315 182.234 21.6025 180.749 21.6025C178.901 21.6025 177.532 22.2625 176.641 23.5825C175.783 24.8695 175.354 26.8 175.354 29.374V30.166C175.354 32.74 175.799 34.687 176.69 36.007C177.614 37.294 179.083 37.9375 181.096 37.9375C182.515 37.9375 183.637 37.5085 184.462 36.6505C185.32 35.7595 185.749 34.5385 185.749 32.9875H192.283C192.283 36.3865 191.26 38.977 189.214 40.759C187.168 42.508 184.396 43.3825 180.898 43.3825Z" fill="#DB1425"/>
<path d="M196.127 16.7515H201.919L202.463 20.959H202.81C203.371 19.474 204.097 18.3025 204.988 17.4445C205.879 16.5865 207.05 16.1575 208.502 16.1575C209.459 16.1575 210.317 16.306 211.076 16.603V22.939H209.195C206.984 22.939 205.384 23.5495 204.394 24.7705C203.404 25.9585 202.909 27.7735 202.909 30.2155V42.7885H196.127V16.7515Z" fill="#DB1425"/>
<path d="M224.623 43.3825C220.432 43.3825 217.297 42.277 215.218 40.066C213.172 37.855 212.149 34.423 212.149 29.77C212.149 25.117 213.172 21.685 215.218 19.474C217.297 17.263 220.432 16.1575 224.623 16.1575C228.484 16.1575 231.371 17.2795 233.285 19.5235C235.199 21.7345 236.156 25.15 236.156 29.77V31.354H219.029C219.095 33.664 219.557 35.38 220.415 36.502C221.273 37.591 222.709 38.1355 224.722 38.1355C226.141 38.1355 227.279 37.7395 228.137 36.9475C229.028 36.1555 229.474 35.0335 229.474 33.5815H236.156C236.156 36.8485 235.1 39.307 232.988 40.957C230.876 42.574 228.088 43.3825 224.623 43.3825ZM229.127 26.8495C229.127 23.2525 227.626 21.454 224.623 21.454C222.907 21.454 221.603 21.8995 220.712 22.7905C219.854 23.6815 219.326 25.0345 219.128 26.8495H229.127Z" fill="#DB1425"/>
<path d="M250.643 43.3825C246.452 43.3825 243.317 42.277 241.238 40.066C239.192 37.855 238.169 34.423 238.169 29.77C238.169 25.117 239.192 21.685 241.238 19.474C243.317 17.263 246.452 16.1575 250.643 16.1575C254.504 16.1575 257.392 17.2795 259.306 19.5235C261.22 21.7345 262.177 25.15 262.177 29.77V31.354H245.05C245.116 33.664 245.578 35.38 246.436 36.502C247.294 37.591 248.729 38.1355 250.742 38.1355C252.161 38.1355 253.3 37.7395 254.158 36.9475C255.049 36.1555 255.494 35.0335 255.494 33.5815H262.177C262.177 36.8485 261.121 39.307 259.009 40.957C256.897 42.574 254.108 43.3825 250.643 43.3825ZM255.148 26.8495C255.148 23.2525 253.646 21.454 250.643 21.454C248.927 21.454 247.624 21.8995 246.733 22.7905C245.875 23.6815 245.347 25.0345 245.149 26.8495H255.148Z" fill="#DB1425"/>
<path d="M265.922 16.7515H271.714L272.209 20.167H272.555C274.667 17.494 277.373 16.1575 280.673 16.1575C283.346 16.1575 285.442 16.8835 286.96 18.3355C288.511 19.7875 289.286 22.114 289.286 25.315V42.7885H282.505V26.7505C282.505 25.1335 282.125 23.962 281.366 23.236C280.607 22.51 279.485 22.147 278 22.147C276.482 22.147 275.212 22.6915 274.189 23.7805C273.199 24.8365 272.704 26.1565 272.704 27.7405V42.7885H265.922V16.7515Z" fill="#DB1425"/>
<path d="M305.093 43.3825C301.463 43.3825 298.608 42.64 296.529 41.155C294.483 39.637 293.46 37.624 293.46 35.116L293.51 34.522H300.093V34.8685C300.126 36.0235 300.638 36.865 301.628 37.393C302.651 37.888 303.888 38.1355 305.34 38.1355C306.693 38.1355 307.848 37.954 308.805 37.591C309.762 37.228 310.241 36.634 310.241 35.809C310.241 34.885 309.746 34.192 308.756 33.73C307.799 33.268 306.281 32.806 304.202 32.344C302.057 31.849 300.308 31.354 298.955 30.859C297.602 30.331 296.43 29.5225 295.44 28.4335C294.45 27.3445 293.955 25.8925 293.955 24.0775C293.955 21.5365 295.011 19.5895 297.123 18.2365C299.268 16.8505 302.024 16.1575 305.39 16.1575C308.525 16.1575 311.115 16.801 313.161 18.088C315.207 19.342 316.23 21.058 316.23 23.236L316.181 24.3745H309.597V24.0775C309.597 23.2195 309.185 22.5595 308.36 22.0975C307.568 21.6355 306.495 21.4045 305.142 21.4045C303.789 21.4045 302.717 21.586 301.925 21.949C301.133 22.312 300.737 22.8235 300.737 23.4835C300.737 24.3085 301.182 24.919 302.073 25.315C302.997 25.711 304.466 26.107 306.479 26.503C308.69 26.998 310.488 27.493 311.874 27.988C313.26 28.483 314.465 29.2915 315.488 30.4135C316.511 31.5355 317.022 33.0535 317.022 34.9675C317.022 40.5775 313.046 43.3825 305.093 43.3825Z" fill="#DB1425"/>
<path d="M320.718 7H327.5V19.771H327.846C329.826 17.362 332.367 16.1575 335.469 16.1575C338.142 16.1575 340.238 16.8835 341.756 18.3355C343.307 19.7875 344.082 22.114 344.082 25.315V42.7885H337.301V26.7505C337.301 25.1335 336.921 23.962 336.162 23.236C335.403 22.51 334.281 22.147 332.796 22.147C331.278 22.147 330.008 22.6915 328.985 23.7805C327.995 24.8365 327.5 26.1565 327.5 27.7405V42.7885H320.718V7Z" fill="#DB1425"/>
<path d="M361.077 43.3825C356.622 43.3825 353.305 42.277 351.127 40.066C348.949 37.855 347.86 34.423 347.86 29.77C347.86 25.117 348.949 21.685 351.127 19.474C353.305 17.263 356.622 16.1575 361.077 16.1575C365.532 16.1575 368.848 17.263 371.026 19.474C373.237 21.685 374.343 25.117 374.343 29.77C374.343 34.423 373.237 37.855 371.026 40.066C368.848 42.277 365.532 43.3825 361.077 43.3825ZM361.077 37.8385C363.288 37.8385 364.888 37.2115 365.878 35.9575C366.868 34.6705 367.363 32.74 367.363 30.166V29.374C367.363 26.8 366.868 24.886 365.878 23.632C364.888 22.345 363.288 21.7015 361.077 21.7015C358.866 21.7015 357.265 22.345 356.275 23.632C355.318 24.886 354.84 26.8 354.84 29.374V30.166C354.84 32.74 355.318 34.6705 356.275 35.9575C357.265 37.2115 358.866 37.8385 361.077 37.8385Z" fill="#DB1425"/>
<path d="M385.249 43.3825C382.807 43.3825 381.058 42.7225 380.002 41.4025C378.946 40.0825 378.418 38.416 378.418 36.403V22.2955H375.3V16.7515H378.567L379.705 9.4255H385.2V16.7515H389.704V22.2955H385.2V35.71C385.2 37.129 385.909 37.8385 387.328 37.8385H389.704V42.5905C389.143 42.7885 388.434 42.97 387.576 43.135C386.751 43.3 385.975 43.3825 385.249 43.3825Z" fill="#DB1425"/>
<circle cx="25" cy="25" r="25" fill="#DB1425"/>
<path fill-rule="evenodd" clip-rule="evenodd" d="M12.118 19.9998H23.8846L21.7667 30.769H10L12.118 19.9998Z" fill="white"/>
<path fill-rule="evenodd" clip-rule="evenodd" d="M27.4641 19.9998H39.2307L37.1127 30.769H25.3461L27.4641 19.9998Z" fill="white"/>
</svg>
