<?xml version="1.0" encoding="utf-8"?>
<!-- Generator: Adobe Illustrator 19.2.1, SVG Export Plug-In . SVG Version: 6.00 Build 0)  -->
<svg version="1.1" id="layer" xmlns="http://www.w3.org/2000/svg" xmlns:xlink="http://www.w3.org/1999/xlink" x="0px" y="0px"
	 viewBox="0 0 652 652" style="enable-background:new 0 0 652 652;" xml:space="preserve">
<style type="text/css">
	.st0{fill:#FF3366;}
	.st1{fill:#FFFFFF;}
</style>
<g id="mdb-atlas-competitive-hires-comp">
	<g id="D---180426-atlas-competitive-dynamo-2" transform="translate(-1145.000000, -136.000000)">
		<g id="Hero" transform="translate(153.000000, -385.000000)">
			<g id="Grid" transform="translate(547.122366, 0.736576)">
				<g id="logo-invision" transform="translate(445.514531, 520.369318)">
					<path id="Fill-1" class="st0" d="M201.4,219.7H37.7c-10,0-18.1,8.4-18.1,18.6v167.9c0,10.2,8.2,18.6,18.1,18.6h163.7
						c10,0,18.1-8.4,18.1-18.6V238.3C219.5,228.1,211.3,219.7,201.4,219.7z"/>
					<path id="Fill-3" class="st0" d="M301.1,380h19.3v-86.9h-19.3V380z M371.7,328.6c-9.9-3.2-19-6-19-12.2v-0.3
						c0-5.1,4.3-8.7,11.9-8.7c3.6,0,7.7,0.9,12,2.4c0,0,0,0,0.2,0c0.3,0.2,0.7,0.3,1.2,0.5c3.1,1,11.2,2.4,18.3-8.8
						c-8.9-6.1-20.4-9.9-31-9.9c-16.8,0-30,10-30,26.5v0.3c0,16.7,13.8,21.9,26.4,25.5c9.9,3.1,18.8,5.4,18.8,12.2v0.3
						c0,5.8-4.8,9.4-13,9.4c-5.4,0-11.5-1.5-17.6-4.4c-1.8-0.7-10.7-3.9-18.5,7.3c10.5,8.5,23.6,12.9,35.6,12.9
						c17.5,0,31.3-9,31.3-27.4V354C397.9,338.3,384,332.6,371.7,328.6z M248.6,356.9L226,292.9h-20.8l34.6,87.6h17.3l34.4-87.4
						h-20.3L248.6,356.9z M487.5,291.2c-25.9,0-45,20.6-45,45.6c0,24.8,19,45.1,44.7,45.1c26,0,45.2-20.6,45.2-45.4
						C532.3,311.5,513.2,291.2,487.5,291.2z M487.5,364.7c-15,0-25.7-12.8-25.7-28.2c0-15.3,9.9-27.9,25.4-27.9
						c15.2,0,25.9,12.8,25.9,28.2C512.9,352.1,503,364.7,487.5,364.7z M589.5,291.2c-13,0-20.9,7.1-26.4,15.3v-13.4h-19.3V380h19.3
						v-49.1c0-13.4,7.7-21.6,19-21.6c11.5,0,18,7.7,18,21.3v49.3h19.4v-55.1C619.5,304.5,608.5,291.2,589.5,291.2z M410.6,380h19.3
						v-86.9h-19.3V380z"/>
					<path id="Fill-4" class="st1" d="M88.6,281.7c6.5,0,11.9-5.2,11.9-11.9c0-6.8-5.4-11.9-11.9-11.9s-11.9,5.2-11.9,11.9
						C76.7,276.5,82.1,281.7,88.6,281.7z"/>
					<path id="Fill-5" class="st1" d="M62.8,350.5c-0.7,3.1-1.2,6.3-1.2,8.9c0,10.6,5.8,17.6,18.3,17.6c10.3,0,18.6-6,24.6-15.6
						l-3.7,14.5h20.5L133,330c3-11.5,8.7-17.7,17.1-17.7c6.8,0,11,4.1,11,10.9c0,2-0.2,4.1-0.8,6.5l-6,21.1c-0.8,3.1-1.3,6-1.3,8.9
						c0,10.1,6,17.4,18.6,17.4c10.8,0,19.5-6.8,24.1-23.1l-8-3.1c-4,10.9-7.5,12.8-10.3,12.8c-2.7,0-4.2-1.8-4.2-5.4
						c0-1.6,0.3-3.4,0.8-5.5l6.2-20.5c1.5-4.9,2-9.1,2-13c0-15.4-9.5-23.4-21-23.4c-10.8,0-21.8,9.4-27.3,19.5l4-18h-31.3l-4.5,15.8
						h14.6l-9,35.3c-7.2,15.4-20.1,15.6-21.6,15.3c-2.7-0.7-4.3-1.6-4.3-5c0-2,0.3-4.7,1.3-8.1l13.6-53.1H62.1l-4.5,15.8h14.5
						L62.8,350.5z"/>
				</g>
			</g>
		</g>
	</g>
</g>
</svg>
